<?xml version="1.0" encoding="UTF-8" standalone="no"?>
<!-- Created with Inkscape (http://www.inkscape.org/) -->

<svg
   width="46.889999mm"
   height="45.75182mm"
   viewBox="0 0 46.89 45.75182"
   version="1.1"
   id="svg1"
   xml:space="preserve"
   inkscape:version="1.3.2 (091e20e, 2023-11-25, custom)"
   sodipodi:docname="logo-chamber-only.svg"
   xmlns:inkscape="http://www.inkscape.org/namespaces/inkscape"
   xmlns:sodipodi="http://sodipodi.sourceforge.net/DTD/sodipodi-0.dtd"
   xmlns="http://www.w3.org/2000/svg"
   xmlns:svg="http://www.w3.org/2000/svg"><sodipodi:namedview
     id="namedview1"
     pagecolor="#ffffff"
     bordercolor="#000000"
     borderopacity="0.25"
     inkscape:showpageshadow="2"
     inkscape:pageopacity="0.0"
     inkscape:pagecheckerboard="0"
     inkscape:deskcolor="#d1d1d1"
     inkscape:document-units="mm"
     inkscape:zoom="3.7665264"
     inkscape:cx="86.950141"
     inkscape:cy="122.79218"
     inkscape:window-width="2400"
     inkscape:window-height="1271"
     inkscape:window-x="-9"
     inkscape:window-y="-9"
     inkscape:window-maximized="1"
     inkscape:current-layer="layer1" /><defs
     id="defs1" /><g
     inkscape:label="Capa 1"
     inkscape:groupmode="layer"
     id="layer1"
     transform="translate(-81.63113,-116.89012)"><path
       d="m 92.286288,160.16662 -10.570528,-2.45385 -0.08331,-0.24994 c -0.104064,-0.31219 5.976921,-20.24974 6.269234,-20.55476 l 0.213396,-0.22267 1.523801,2.69125 1.5238,2.69125 -1.7597,5.74544 c -0.967835,3.15999 -1.7597,5.88663 -1.7597,6.05919 v 0.31375 l 0.659799,0.1656 c 0.36289,0.0911 3.106993,0.72254 6.098008,1.40324 l 5.43821,1.23764 0.672002,1.18149 c 1.69611,2.98201 2.51625,4.48708 2.43443,4.4675 -0.0489,-0.0117 -4.845646,-1.12551 -10.659437,-2.47513 z m 14.996622,1.63651 c 0.21225,-0.32742 0.94952,-1.57546 1.63838,-2.77343 l 1.25247,-2.17812 0.97174,-0.25751 c 0.53445,-0.14162 3.17439,-0.75157 5.86652,-1.35543 l 4.8948,-1.09793 0.29372,-0.3029 0.29372,-0.3029 -1.81542,-5.85671 -1.81545,-5.85671 1.52172,-2.67339 c 0.83695,-1.47036 1.58659,-2.6746 1.6659,-2.6761 0.11847,-0.002 6.32601,19.9913 6.43636,20.73054 l 0.034,0.22805 -10.71564,2.47727 c -5.89359,1.3625 -10.75908,2.48026 -10.8122,2.48393 -0.0531,0.004 0.0771,-0.26123 0.28934,-0.58866 z m -2.7063,-8.60309 v -2.34322 l 1.30955,-0.33563 1.30955,-0.33563 1.18183,-1.04029 1.18183,-1.04028 0.55133,-1.13889 0.55132,-1.13889 -0.006,-1.43782 -0.006,-1.43782 -0.48283,-1.05833 -0.48284,-1.05833 -1.01712,-0.98455 -1.01713,-0.98454 -1.18719,-0.40452 c -1.43283,-0.48822 -2.64961,-0.51275 -4.10494,-0.0828 l -1.08903,0.32176 -1.348899,1.34061 -1.3489,1.3406 -0.331137,1.38034 -0.331138,1.38034 h -2.259205 -2.259584 l 0.150272,-1.456 0.150272,-1.45599 0.666176,-1.45512 0.666177,-1.45512 1.37971,-1.45885 1.379711,-1.45884 1.611169,-0.79198 1.611166,-0.79198 1.65365,-0.29029 1.65364,-0.29029 1.62766,0.28671 1.62765,0.2867 1.62711,0.76142 1.62711,0.76141 1.32501,1.34608 1.32501,1.34608 0.69644,1.42232 0.69645,1.42232 0.32576,1.768 0.32577,1.768 -0.32285,1.75216 -0.32285,1.75216 -0.77249,1.48899 c -1.72185,3.31885 -4.56745,5.31296 -8.52901,5.97689 l -0.99218,0.16628 z M 90.839681,131.77293 c 4.6111,-5.05181 13.843289,-14.88281 13.976279,-14.88281 0.0897,0 2.8407,2.88253 6.1134,6.40563 3.27271,3.5231 6.64863,7.15451 7.50206,8.06979 l 1.5517,1.66416 -3.27149,-0.005 -3.27148,-0.005 -4.10104,-4.46841 c -2.25558,-2.45763 -4.22286,-4.52498 -4.37174,-4.5941 l -0.27069,-0.12568 -4.22722,4.58192 -4.227226,4.58193 -3.274843,0.0169 -3.274843,0.0169 z"
       style="fill:#e1222d;fill-opacity:1"
       id="path1-6"
       inkscape:label="chamber" /></g></svg>
