<?xml version="1.0" encoding="UTF-8" standalone="no"?>
<!-- Created with Inkscape (http://www.inkscape.org/) -->

<svg
   width="67.73333mm"
   height="67.73333mm"
   viewBox="0 0 67.73333 67.73333"
   version="1.1"
   id="svg1"
   xml:space="preserve"
   inkscape:version="1.3.2 (091e20e, 2023-11-25, custom)"
   sodipodi:docname="logo.svg"
   xmlns:inkscape="http://www.inkscape.org/namespaces/inkscape"
   xmlns:sodipodi="http://sodipodi.sourceforge.net/DTD/sodipodi-0.dtd"
   xmlns="http://www.w3.org/2000/svg"
   xmlns:svg="http://www.w3.org/2000/svg"><sodipodi:namedview
     id="namedview1"
     pagecolor="#ffffff"
     bordercolor="#000000"
     borderopacity="0.25"
     inkscape:showpageshadow="2"
     inkscape:pageopacity="0.0"
     inkscape:pagecheckerboard="0"
     inkscape:deskcolor="#d1d1d1"
     inkscape:document-units="mm"
     inkscape:zoom="3.7665264"
     inkscape:cx="166.59913"
     inkscape:cy="139.78397"
     inkscape:window-width="2400"
     inkscape:window-height="1271"
     inkscape:window-x="-9"
     inkscape:window-y="-9"
     inkscape:window-maximized="1"
     inkscape:current-layer="layer1" /><defs
     id="defs1" /><g
     inkscape:label="Capa 1"
     inkscape:groupmode="layer"
     id="layer1"
     transform="translate(-71.080826,-114.63334)"><path
       style="fill:#000000"
       d="m 81.928742,179.2574 -0.926042,-0.46261 -0.318888,-0.92604 -0.318889,-0.92604 0.153025,-1.19062 c 0.21182,-1.6481 0.764456,-2.89393 1.723086,-3.88445 l 0.814641,-0.84173 1.222471,-0.29281 1.222471,-0.2928 1.058333,0.22593 1.058333,0.22594 -0.08545,0.47912 c -0.047,0.26352 -0.192877,0.76169 -0.324181,1.10704 l -0.238734,0.62792 H 85.91014 84.851357 l -0.389235,0.59531 -0.389234,0.59532 -0.07989,1.45521 -0.07989,1.4552 1.256771,-0.0428 1.25677,-0.0428 v 1.02572 1.02571 l -0.511772,0.27389 -0.511773,0.2739 -1.274165,-4.2e-4 -1.274164,-4.1e-4 z m 32.464148,0.20789 c -0.5531,-0.10708 -1.11257,-0.30175 -1.24326,-0.4326 l -0.23763,-0.2379 0.88362,-5.07169 c 0.48598,-2.78943 0.96318,-5.20045 1.06044,-5.35781 l 0.17683,-0.28612 h 1.4487 1.44871 l -0.18037,1.35967 -0.18036,1.35967 0.95106,-0.17842 0.95107,-0.17842 0.91868,0.38385 0.91868,0.38385 0.28588,0.53417 0.28588,0.53417 -0.006,1.80334 -0.006,1.80333 -0.48845,1.05833 c -0.56509,1.22439 -1.43454,2.09461 -2.49371,2.49592 l -0.74483,0.28221 -1.37184,-0.0304 c -0.75451,-0.0167 -1.82438,-0.11804 -2.37748,-0.22512 z m 3.68877,-2.91945 c 0.16875,-0.36381 0.3894,-1.28654 0.49032,-2.05053 l 0.1835,-1.38906 h -0.65389 -0.65389 l -0.25915,0.33073 c -0.3061,0.39066 -0.83766,3.57615 -0.63119,3.78261 0.0783,0.0783 0.38422,0.10753 0.67989,0.065 l 0.53758,-0.0773 z m -30.067502,2.45366 c 0,-0.45544 1.436545,-9.04294 1.727203,-10.32502 l 0.134962,-0.59531 h 1.600289 1.600289 l -0.127019,0.46302 c -0.06986,0.25466 -0.202341,0.90951 -0.294402,1.45521 l -0.167383,0.99219 0.210426,-0.001 c 0.115735,-8.1e-4 0.652815,-0.12434 1.193513,-0.27451 l 0.983085,-0.27303 0.868998,0.22498 0.868997,0.22498 0.290394,0.58153 0.290393,0.58152 -0.477948,2.84144 c -0.262872,1.56279 -0.547773,3.22839 -0.633112,3.70134 l -0.155163,0.85989 h -1.596534 -1.596533 l 0.144632,-0.7276 c 0.07955,-0.40018 0.270316,-1.50151 0.423932,-2.4474 0.153615,-0.94588 0.338384,-1.98768 0.410598,-2.3151 l 0.131298,-0.59531 -0.600353,0.004 c -0.330195,0.002 -0.740654,0.0933 -0.912133,0.20234 l -0.31178,0.19829 -0.48197,2.77422 -0.481971,2.77422 -1.521354,0.0794 -1.521354,0.0794 z m 10.207972,-0.53544 c 0.08803,-0.5457 0.420464,-2.48046 0.738735,-4.29947 l 0.578676,-3.3073 0.609129,-0.0874 0.60913,-0.0874 0.48329,0.43737 0.48329,0.43737 0.75166,-0.38424 c 0.41341,-0.21134 1.12081,-0.46367 1.57198,-0.56073 l 0.82033,-0.17649 1.09,0.37553 1.09001,0.37554 1.18878,-0.39136 1.18878,-0.39136 1.13423,0.35888 1.13422,0.35889 0.0789,0.93903 0.079,0.93904 -0.54197,3.00984 c -0.29808,1.65541 -0.54197,3.10808 -0.54197,3.22815 v 0.21831 h -1.5875 -1.5875 l 3.7e-4,-0.19844 c 1.9e-4,-0.10914 0.17863,-1.21046 0.39651,-2.44739 0.21788,-1.23693 0.39631,-2.52513 0.39651,-2.86267 l 3.6e-4,-0.61372 -0.56829,0.0845 -0.56829,0.0846 -0.21434,0.39687 c -0.11789,0.21828 -0.412,1.55774 -0.65358,2.97656 l -0.43923,2.57969 h -1.55626 -1.55626 v -0.23535 c 0,-0.24727 0.71035,-4.23248 0.93664,-5.25475 l 0.13178,-0.59531 h -0.65719 -0.65719 l -0.24081,0.46302 c -0.13245,0.25466 -0.37769,1.29645 -0.54497,2.3151 -0.16729,1.01865 -0.37023,2.17951 -0.45098,2.57969 l -0.14682,0.7276 h -1.569605 -1.569604 z m 24.87207,0 c 0.0887,-0.5457 0.41755,-2.48046 0.73074,-4.29947 l 0.56942,-3.3073 0.67527,-0.0787 0.67526,-0.0787 0.47714,0.52723 0.47715,0.52724 0.96034,-0.51471 c 0.52819,-0.2831 1.11503,-0.51472 1.3041,-0.51472 h 0.34376 l -0.17725,1.38907 c -0.20816,1.63132 -0.16134,1.55942 -1.24286,1.909 l -0.84707,0.27381 -0.49465,2.57968 -0.49465,2.57969 h -1.559 -1.559 z"
       id="path1"
       sodipodi:nodetypes="ccccsscccccsscccccccccccccccccsccscccccccccccccsscccccscccsscccsscccssccscccccsscccsssccccccccsssccccccscccccccccssccccsscccsscccsscccssscccscccccccsscsscccccc"
       inkscape:label="title" /><path
       d="m 92.286288,160.16662 -10.570528,-2.45385 -0.08331,-0.24994 c -0.104064,-0.31219 5.976921,-20.24974 6.269234,-20.55476 l 0.213396,-0.22267 1.523801,2.69125 1.5238,2.69125 -1.7597,5.74544 c -0.967835,3.15999 -1.7597,5.88663 -1.7597,6.05919 v 0.31375 l 0.659799,0.1656 c 0.36289,0.0911 3.106993,0.72254 6.098008,1.40324 l 5.43821,1.23764 0.672002,1.18149 c 1.69611,2.98201 2.51625,4.48708 2.43443,4.4675 -0.0489,-0.0117 -4.845646,-1.12551 -10.659437,-2.47513 z m 14.996622,1.63651 c 0.21225,-0.32742 0.94952,-1.57546 1.63838,-2.77343 l 1.25247,-2.17812 0.97174,-0.25751 c 0.53445,-0.14162 3.17439,-0.75157 5.86652,-1.35543 l 4.8948,-1.09793 0.29372,-0.3029 0.29372,-0.3029 -1.81542,-5.85671 -1.81545,-5.85671 1.52172,-2.67339 c 0.83695,-1.47036 1.58659,-2.6746 1.6659,-2.6761 0.11847,-0.002 6.32601,19.9913 6.43636,20.73054 l 0.034,0.22805 -10.71564,2.47727 c -5.89359,1.3625 -10.75908,2.48026 -10.8122,2.48393 -0.0531,0.004 0.0771,-0.26123 0.28934,-0.58866 z m -2.7063,-8.60309 v -2.34322 l 1.30955,-0.33563 1.30955,-0.33563 1.18183,-1.04029 1.18183,-1.04028 0.55133,-1.13889 0.55132,-1.13889 -0.006,-1.43782 -0.006,-1.43782 -0.48283,-1.05833 -0.48284,-1.05833 -1.01712,-0.98455 -1.01713,-0.98454 -1.18719,-0.40452 c -1.43283,-0.48822 -2.64961,-0.51275 -4.10494,-0.0828 l -1.08903,0.32176 -1.348899,1.34061 -1.3489,1.3406 -0.331137,1.38034 -0.331138,1.38034 h -2.259205 -2.259584 l 0.150272,-1.456 0.150272,-1.45599 0.666176,-1.45512 0.666177,-1.45512 1.37971,-1.45885 1.379711,-1.45884 1.611169,-0.79198 1.611166,-0.79198 1.65365,-0.29029 1.65364,-0.29029 1.62766,0.28671 1.62765,0.2867 1.62711,0.76142 1.62711,0.76141 1.32501,1.34608 1.32501,1.34608 0.69644,1.42232 0.69645,1.42232 0.32576,1.768 0.32577,1.768 -0.32285,1.75216 -0.32285,1.75216 -0.77249,1.48899 c -1.72185,3.31885 -4.56745,5.31296 -8.52901,5.97689 l -0.99218,0.16628 z M 90.839681,131.77293 c 4.6111,-5.05181 13.843289,-14.88281 13.976279,-14.88281 0.0897,0 2.8407,2.88253 6.1134,6.40563 3.27271,3.5231 6.64863,7.15451 7.50206,8.06979 l 1.5517,1.66416 -3.27149,-0.005 -3.27148,-0.005 -4.10104,-4.46841 c -2.25558,-2.45763 -4.22286,-4.52498 -4.37174,-4.5941 l -0.27069,-0.12568 -4.22722,4.58192 -4.227226,4.58193 -3.274843,0.0169 -3.274843,0.0169 z"
       style="fill:#e1222d;fill-opacity:1"
       id="path1-6"
       inkscape:label="chamber" /></g></svg>
